# This file uses centimeters as units for non-parametric coordinates.

mtllib dirt.mtl
g default
v -0.372519 -0.108053 0.372519
v -0.307754 -0.100149 0.384693
v -0.249941 -0.077039 0.416569
v -0.166628 -0.074886 0.416569
v -0.076939 -0.094133 0.384693
v 0.000000 -0.099585 0.372519
v 0.076939 -0.091125 0.384693
v 0.166628 -0.069811 0.416569
v 0.249941 -0.072326 0.416569
v 0.307754 -0.097180 0.384693
v 0.372519 -0.106752 0.372519
v -0.384693 -0.100149 0.307754
v -0.316858 -0.092300 0.316858
v -0.255448 -0.069737 0.340597
v -0.170298 -0.065252 0.340597
v -0.079214 -0.080252 0.316858
v 0.000000 -0.083726 0.307859
v 0.079237 -0.076153 0.316949
v 0.170298 -0.058344 0.340597
v 0.255448 -0.062991 0.340597
v 0.316858 -0.087820 0.316858
v 0.384693 -0.097923 0.307754
v -0.416569 -0.077039 0.249941
v -0.340597 -0.069737 0.255448
v -0.269630 -0.045093 0.269630
v -0.179753 -0.032322 0.269630
v -0.085277 -0.039088 0.255832
v 0.000000 -0.039714 0.250630
v 0.085335 -0.034137 0.256005
v 0.179853 -0.024080 0.269780
v 0.269707 -0.037023 0.269707
v 0.340597 -0.064324 0.255448
v 0.416569 -0.074243 0.249941
v -0.416569 -0.075106 0.166628
v -0.340590 -0.065870 0.170295
v -0.269707 -0.033043 0.179805
v -0.191017 0.014043 0.191017
v -0.092737 0.019074 0.185474
v 0.000000 0.023395 0.183411
v 0.092826 -0.004283 0.177019
v 0.191139 0.024493 0.191139
v 0.269780 -0.024054 0.179853
v 0.340590 -0.060484 0.170295
v 0.416569 -0.072695 0.166628
v -0.384693 -0.095477 0.076939
v -0.316858 -0.082566 0.079214
v -0.286987 -0.042002 0.085277
v -0.185503 0.016676 0.092752
v -0.098396 0.052280 0.098396
v 0.000000 0.082078 0.098015
v 0.098461 0.081002 0.098461
v 0.185767 -0.003519 0.092884
v 0.256120 -0.030312 0.085373
v 0.316949 -0.075856 0.079237
v 0.384693 -0.093089 0.076939
v -0.372519 -0.102461 0.000000
v -0.307754 -0.088213 0.000000
v -0.250531 -0.045255 0.000000
v -0.183353 0.018004 0.000000
v -0.098015 0.068915 0.000000
v 0.000000 0.077907 0.000000
v 0.098091 0.060358 0.000000
v 0.183827 0.036665 0.000000
v 0.251079 -0.029817 0.000000
v 0.307978 -0.079043 0.000000
v 0.372519 -0.098757 0.000000
v -0.384693 -0.095477 -0.076939
v -0.316858 -0.082566 -0.079214
v -0.255832 -0.042002 -0.085277
v -0.185544 0.018274 -0.092772
v -0.098423 0.075255 -0.098423
v 0.000000 0.088642 -0.098071
v 0.098524 0.089113 -0.098524
v 0.186027 0.039639 -0.093013
v 0.256451 -0.023038 -0.085484
v 0.317080 -0.070670 -0.079270
v 0.384693 -0.089841 -0.076939
v -0.416569 -0.075106 -0.166628
v -0.340590 -0.065870 -0.170295
v -0.269707 -0.033043 -0.179805
v -0.191017 0.015644 -0.191017
v -0.092803 0.024761 -0.185606
v 0.000000 0.033365 -0.183726
v 0.093013 0.038812 -0.186027
v 0.191368 0.038261 -0.191368
v 0.270042 -0.012171 -0.180028
v 0.340597 -0.052087 -0.170298
v 0.416569 -0.068022 -0.166628
v -0.416569 -0.077039 -0.249941
v -0.340597 -0.069737 -0.255448
v -0.269630 -0.045093 -0.269630
v -0.179753 -0.031514 -0.269630
v -0.085313 -0.035441 -0.255939
v 0.000000 -0.032388 -0.250964
v 0.085484 -0.023642 -0.256451
v 0.180038 -0.012148 -0.270057
v 0.269927 -0.026427 -0.269927
v 0.340774 -0.057336 -0.255580
v 0.416569 -0.070936 -0.249941
v -0.384693 -0.100149 -0.307754
v -0.316858 -0.092300 -0.316858
v -0.255448 -0.069737 -0.340597
v -0.170298 -0.065293 -0.340597
v -0.079214 -0.079033 -0.316858
v 0.000000 -0.080488 -0.307859
v 0.079270 -0.070879 -0.317080
v 0.170298 -0.052087 -0.340597
v 0.255580 -0.057336 -0.340774
v 0.316949 -0.084454 -0.316949
v 0.384693 -0.096740 -0.307754
v -0.372519 -0.108053 -0.372519
v -0.307754 -0.100149 -0.384693
v -0.249941 -0.077039 -0.416569
v -0.166628 -0.075106 -0.416569
v -0.076939 -0.094432 -0.384693
v 0.000000 -0.099159 -0.372519
v 0.076939 -0.089841 -0.384693
v 0.166628 -0.068022 -0.416569
v 0.249941 -0.070936 -0.416569
v 0.307754 -0.096740 -0.384693
v 0.372519 -0.107042 -0.372519
vt 0.000000 0.000000
vt 0.100000 0.000000
vt 0.200000 0.000000
vt 0.300000 0.000000
vt 0.400000 0.000000
vt 0.500000 0.000000
vt 0.600000 0.000000
vt 0.700000 0.000000
vt 0.800000 0.000000
vt 0.900000 0.000000
vt 1.000000 0.000000
vt 0.000000 0.100000
vt 0.100000 0.100000
vt 0.200000 0.100000
vt 0.300000 0.100000
vt 0.400000 0.100000
vt 0.500000 0.100000
vt 0.600000 0.100000
vt 0.700000 0.100000
vt 0.800000 0.100000
vt 0.900000 0.100000
vt 1.000000 0.100000
vt 0.000000 0.200000
vt 0.100000 0.200000
vt 0.200000 0.200000
vt 0.300000 0.200000
vt 0.400000 0.200000
vt 0.500000 0.200000
vt 0.600000 0.200000
vt 0.700000 0.200000
vt 0.800000 0.200000
vt 0.900000 0.200000
vt 1.000000 0.200000
vt 0.000000 0.300000
vt 0.100000 0.300000
vt 0.200000 0.300000
vt 0.300000 0.300000
vt 0.400000 0.300000
vt 0.500000 0.300000
vt 0.600000 0.300000
vt 0.700000 0.300000
vt 0.800000 0.300000
vt 0.900000 0.300000
vt 1.000000 0.300000
vt 0.000000 0.400000
vt 0.100000 0.400000
vt 0.200000 0.400000
vt 0.300000 0.400000
vt 0.400000 0.400000
vt 0.500000 0.400000
vt 0.600000 0.400000
vt 0.700000 0.400000
vt 0.800000 0.400000
vt 0.900000 0.400000
vt 1.000000 0.400000
vt 0.000000 0.500000
vt 0.100000 0.500000
vt 0.200000 0.500000
vt 0.300000 0.500000
vt 0.400000 0.500000
vt 0.500000 0.500000
vt 0.600000 0.500000
vt 0.700000 0.500000
vt 0.800000 0.500000
vt 0.900000 0.500000
vt 1.000000 0.500000
vt 0.000000 0.600000
vt 0.100000 0.600000
vt 0.200000 0.600000
vt 0.300000 0.600000
vt 0.400000 0.600000
vt 0.500000 0.600000
vt 0.600000 0.600000
vt 0.700000 0.600000
vt 0.800000 0.600000
vt 0.900000 0.600000
vt 1.000000 0.600000
vt 0.000000 0.700000
vt 0.100000 0.700000
vt 0.200000 0.700000
vt 0.300000 0.700000
vt 0.400000 0.700000
vt 0.500000 0.700000
vt 0.600000 0.700000
vt 0.700000 0.700000
vt 0.800000 0.700000
vt 0.900000 0.700000
vt 1.000000 0.700000
vt 0.000000 0.800000
vt 0.100000 0.800000
vt 0.200000 0.800000
vt 0.300000 0.800000
vt 0.400000 0.800000
vt 0.500000 0.800000
vt 0.600000 0.800000
vt 0.700000 0.800000
vt 0.800000 0.800000
vt 0.900000 0.800000
vt 1.000000 0.800000
vt 0.000000 0.900000
vt 0.100000 0.900000
vt 0.200000 0.900000
vt 0.300000 0.900000
vt 0.400000 0.900000
vt 0.500000 0.900000
vt 0.600000 0.900000
vt 0.700000 0.900000
vt 0.800000 0.900000
vt 0.900000 0.900000
vt 1.000000 0.900000
vt 0.000000 1.000000
vt 0.100000 1.000000
vt 0.200000 1.000000
vt 0.300000 1.000000
vt 0.400000 1.000000
vt 0.500000 1.000000
vt 0.600000 1.000000
vt 0.700000 1.000000
vt 0.800000 1.000000
vt 0.900000 1.000000
vt 1.000000 1.000000
vn -0.138755 0.980558 0.138755
vn -0.313041 0.939559 0.138689
vn -0.290277 0.911855 0.290277
vn -0.138689 0.939559 0.313041
vn -0.157899 0.979843 0.122372
vn -0.211281 0.941523 0.262478
vn 0.089038 0.987391 0.130885
vn 0.084393 0.955976 0.281047
vn 0.173390 0.969184 0.174979
vn 0.151396 0.917350 0.368169
vn -0.022409 0.975001 0.221066
vn -0.022993 0.902553 0.429965
vn -0.207970 0.959995 0.187505
vn -0.187704 0.907730 0.375225
vn -0.102595 0.982963 0.152507
vn -0.099470 0.949239 0.298414
vn 0.174326 0.973533 0.147797
vn 0.227572 0.931416 0.284035
vn 0.345664 0.924342 0.161579
vn 0.321012 0.895029 0.309635
vn 0.170045 0.972252 0.160655
vn 0.169811 0.927364 0.333407
vn -0.261484 0.942560 0.207863
vn -0.120439 0.980615 0.154556
vn -0.310117 0.899755 0.307031
vn -0.041505 0.890132 0.453809
vn 0.082626 0.814609 0.574095
vn 0.023089 0.802946 0.595604
vn -0.119638 0.859063 0.497692
vn -0.013615 0.908438 0.417797
vn 0.328132 0.889145 0.318983
vn 0.296802 0.929954 0.217013
vn 0.155612 0.974452 0.161949
vn -0.292412 0.953619 -0.071458
vn -0.124706 0.987392 -0.097501
vn -0.454275 0.887020 0.082647
vn -0.265607 0.923904 0.275418
vn -0.077094 0.875556 0.476926
vn 0.024639 0.806837 0.590261
vn 0.061350 0.866045 0.496187
vn 0.201657 0.950194 0.237624
vn 0.432401 0.901662 0.005936
vn 0.319254 0.943043 -0.093522
vn 0.166259 0.980753 -0.102382
vn -0.399214 0.898406 -0.183015
vn -0.161454 0.968693 -0.188591
vn -0.575268 0.810366 -0.111241
vn -0.446426 0.894235 0.032372
vn -0.255131 0.944763 0.205746
vn -0.023748 0.958307 0.284752
vn 0.261540 0.932467 0.249203
vn 0.455429 0.886891 0.077520
vn 0.527631 0.845930 -0.077512
vn 0.412199 0.897507 -0.156758
vn 0.217284 0.958273 -0.185744
vn -0.437729 0.898638 -0.029043
vn -0.198899 0.980020 -0.000000
vn -0.619119 0.783635 -0.051070
vn -0.555462 0.831523 0.005602
vn -0.323517 0.943902 0.066226
vn -0.031839 0.997901 0.056385
vn 0.283722 0.955637 0.079122
vn 0.537279 0.835741 0.113441
vn 0.626768 0.775181 0.079100
vn 0.480911 0.876281 0.029247
vn 0.273625 0.961472 0.026486
vn -0.357145 0.918468 0.169894
vn -0.161454 0.968693 0.188591
vn -0.576543 0.810172 0.105923
vn -0.528951 0.848190 -0.027997
vn -0.271543 0.946566 -0.174006
vn -0.039351 0.979746 -0.196339
vn 0.169556 0.978713 -0.115636
vn 0.484167 0.874848 0.014959
vn 0.609025 0.782575 0.129094
vn 0.429056 0.880557 0.201319
vn 0.241324 0.944117 0.224512
vn -0.275897 0.956448 0.095332
vn -0.124706 0.987392 0.097501
vn -0.461848 0.886485 -0.028995
vn -0.319762 0.902626 -0.288131
vn -0.109396 0.850638 -0.514245
vn -0.060437 0.801965 -0.594306
vn 0.009061 0.854698 -0.519046
vn 0.292182 0.909768 -0.294878
vn 0.501690 0.864557 -0.029146
vn 0.357317 0.927998 0.105564
vn 0.207919 0.971844 0.110858
vn -0.261484 0.942560 -0.207863
vn -0.120439 0.980615 -0.154556
vn -0.314207 0.897539 -0.309352
vn -0.057444 0.883897 -0.464140
vn 0.055719 0.802876 -0.593537
vn -0.053416 0.755800 -0.652621
vn -0.139865 0.783759 -0.605112
vn 0.026797 0.865154 -0.500791
vn 0.350578 0.868481 -0.350479
vn 0.339925 0.907177 -0.247955
vn 0.201370 0.960164 -0.193741
vn -0.290277 0.911855 -0.290277
vn -0.138689 0.939559 -0.313041
vn -0.212027 0.940755 -0.264622
vn 0.078950 0.953421 -0.291128
vn 0.136310 0.909440 -0.392858
vn -0.046265 0.882069 -0.468843
vn -0.208348 0.881438 -0.423862
vn -0.106632 0.928231 -0.356394
vn 0.248007 0.907142 -0.339979
vn 0.353430 0.866126 -0.353430
vn 0.202605 0.904077 -0.376293
vn -0.313041 0.939559 -0.138689
vn -0.138755 0.980558 -0.138756
vn -0.156827 0.979921 -0.123130
vn 0.088501 0.986627 -0.136875
vn 0.166242 0.966815 -0.193992
vn -0.040598 0.964947 -0.259287
vn -0.228409 0.944315 -0.236853
vn -0.111193 0.971947 -0.207257
vn 0.193741 0.960164 -0.201370
vn 0.376293 0.904077 -0.202605
vn 0.195332 0.961088 -0.195332
s 1
g pPlane1
usemtl initialShadingGroup
f 1/1/1 2/2/2 13/13/3 12/12/4
f 2/2/2 3/3/5 14/14/6 13/13/3
f 3/3/5 4/4/7 15/15/8 14/14/6
f 4/4/7 5/5/9 16/16/10 15/15/8
f 5/5/9 6/6/11 17/17/12 16/16/10
f 6/6/11 7/7/13 18/18/14 17/17/12
f 7/7/13 8/8/15 19/19/16 18/18/14
f 8/8/15 9/9/17 20/20/18 19/19/16
f 9/9/17 10/10/19 21/21/20 20/20/18
f 10/10/19 11/11/21 22/22/22 21/21/20
f 12/12/4 13/13/3 24/24/23 23/23/24
f 13/13/3 14/14/6 25/25/25 24/24/23
f 14/14/6 15/15/8 26/26/26 25/25/25
f 15/15/8 16/16/10 27/27/27 26/26/26
f 16/16/10 17/17/12 28/28/28 27/27/27
f 17/17/12 18/18/14 29/29/29 28/28/28
f 18/18/14 19/19/16 30/30/30 29/29/29
f 19/19/16 20/20/18 31/31/31 30/30/30
f 20/20/18 21/21/20 32/32/32 31/31/31
f 21/21/20 22/22/22 33/33/33 32/32/32
f 23/23/24 24/24/23 35/35/34 34/34/35
f 24/24/23 25/25/25 36/36/36 35/35/34
f 25/25/25 26/26/26 37/37/37 36/36/36
f 26/26/26 27/27/27 38/38/38 37/37/37
f 27/27/27 28/28/28 39/39/39 38/38/38
f 28/28/28 29/29/29 40/40/40 39/39/39
f 29/29/29 30/30/30 41/41/41 40/40/40
f 30/30/30 31/31/31 42/42/42 41/41/41
f 31/31/31 32/32/32 43/43/43 42/42/42
f 32/32/32 33/33/33 44/44/44 43/43/43
f 34/34/35 35/35/34 46/46/45 45/45/46
f 35/35/34 36/36/36 47/47/47 46/46/45
f 36/36/36 37/37/37 48/48/48 47/47/47
f 37/37/37 38/38/38 49/49/49 48/48/48
f 38/38/38 39/39/39 50/50/50 49/49/49
f 39/39/39 40/40/40 51/51/51 50/50/50
f 40/40/40 41/41/41 52/52/52 51/51/51
f 41/41/41 42/42/42 53/53/53 52/52/52
f 42/42/42 43/43/43 54/54/54 53/53/53
f 43/43/43 44/44/44 55/55/55 54/54/54
f 45/45/46 46/46/45 57/57/56 56/56/57
f 46/46/45 47/47/47 58/58/58 57/57/56
f 47/47/47 48/48/48 59/59/59 58/58/58
f 48/48/48 49/49/49 60/60/60 59/59/59
f 49/49/49 50/50/50 61/61/61 60/60/60
f 50/50/50 51/51/51 62/62/62 61/61/61
f 51/51/51 52/52/52 63/63/63 62/62/62
f 52/52/52 53/53/53 64/64/64 63/63/63
f 53/53/53 54/54/54 65/65/65 64/64/64
f 54/54/54 55/55/55 66/66/66 65/65/65
f 56/56/57 57/57/56 68/68/67 67/67/68
f 57/57/56 58/58/58 69/69/69 68/68/67
f 58/58/58 59/59/59 70/70/70 69/69/69
f 59/59/59 60/60/60 71/71/71 70/70/70
f 60/60/60 61/61/61 72/72/72 71/71/71
f 61/61/61 62/62/62 73/73/73 72/72/72
f 62/62/62 63/63/63 74/74/74 73/73/73
f 63/63/63 64/64/64 75/75/75 74/74/74
f 64/64/64 65/65/65 76/76/76 75/75/75
f 65/65/65 66/66/66 77/77/77 76/76/76
f 67/67/68 68/68/67 79/79/78 78/78/79
f 68/68/67 69/69/69 80/80/80 79/79/78
f 69/69/69 70/70/70 81/81/81 80/80/80
f 70/70/70 71/71/71 82/82/82 81/81/81
f 71/71/71 72/72/72 83/83/83 82/82/82
f 72/72/72 73/73/73 84/84/84 83/83/83
f 73/73/73 74/74/74 85/85/85 84/84/84
f 74/74/74 75/75/75 86/86/86 85/85/85
f 75/75/75 76/76/76 87/87/87 86/86/86
f 76/76/76 77/77/77 88/88/88 87/87/87
f 78/78/79 79/79/78 90/90/89 89/89/90
f 79/79/78 80/80/80 91/91/91 90/90/89
f 80/80/80 81/81/81 92/92/92 91/91/91
f 81/81/81 82/82/82 93/93/93 92/92/92
f 82/82/82 83/83/83 94/94/94 93/93/93
f 83/83/83 84/84/84 95/95/95 94/94/94
f 84/84/84 85/85/85 96/96/96 95/95/95
f 85/85/85 86/86/86 97/97/97 96/96/96
f 86/86/86 87/87/87 98/98/98 97/97/97
f 87/87/87 88/88/88 99/99/99 98/98/98
f 89/89/90 90/90/89 101/101/100 100/100/101
f 90/90/89 91/91/91 102/102/102 101/101/100
f 91/91/91 92/92/92 103/103/103 102/102/102
f 92/92/92 93/93/93 104/104/104 103/103/103
f 93/93/93 94/94/94 105/105/105 104/104/104
f 94/94/94 95/95/95 106/106/106 105/105/105
f 95/95/95 96/96/96 107/107/107 106/106/106
f 96/96/96 97/97/97 108/108/108 107/107/107
f 97/97/97 98/98/98 109/109/109 108/108/108
f 98/98/98 99/99/99 110/110/110 109/109/109
f 100/100/101 101/101/100 112/112/111 111/111/112
f 101/101/100 102/102/102 113/113/113 112/112/111
f 102/102/102 103/103/103 114/114/114 113/113/113
f 103/103/103 104/104/104 115/115/115 114/114/114
f 104/104/104 105/105/105 116/116/116 115/115/115
f 105/105/105 106/106/106 117/117/117 116/116/116
f 106/106/106 107/107/107 118/118/118 117/117/117
f 107/107/107 108/108/108 119/119/119 118/118/118
f 108/108/108 109/109/109 120/120/120 119/119/119
f 109/109/109 110/110/110 121/121/121 120/120/120
